<?xml version="1.0" standalone="no"?><!DOCTYPE svg PUBLIC "-//W3C//DTD SVG 1.1//EN" "http://www.w3.org/Graphics/SVG/1.1/DTD/svg11.dtd"><svg t="1774695164083" class="icon" viewBox="0 0 1024 1024" version="1.1" xmlns="http://www.w3.org/2000/svg" p-id="1966" xmlns:xlink="http://www.w3.org/1999/xlink" width="128" height="128"><path d="M460.8 153.6a51.2 51.2 0 0 1 3.84 102.272L460.8 256H174.08a71.68 71.68 0 0 0-71.552 67.328L102.4 327.68v522.24a71.68 71.68 0 0 0 67.328 71.552L174.08 921.6h522.24a71.68 71.68 0 0 0 71.552-67.328L768 849.92V563.2a51.2 51.2 0 0 1 102.272-3.84L870.4 563.2v286.72a174.08 174.08 0 0 1-167.9616 173.9776L696.32 1024H174.08a174.08 174.08 0 0 1-173.9776-167.9616L0 849.92V327.68a174.08 174.08 0 0 1 167.9616-173.9776L174.08 153.6H460.8z m512-153.6a51.2 51.2 0 0 1 51.072 47.36L1024 51.2v307.2a51.2 51.2 0 0 1-102.272 3.84L921.6 358.4V164.5568L573.568 512.6144a51.2 51.2 0 0 1-75.4176-69.1456l2.9952-3.2768L838.912 102.4H665.6a51.2 51.2 0 0 1-51.072-47.36L614.4 51.2A51.2 51.2 0 0 1 661.76 0.128L665.6 0h307.2z" fill="#bfbfbf" p-id="1967"></path></svg>