<?xml version="1.0" standalone="no"?><!DOCTYPE svg PUBLIC "-//W3C//DTD SVG 1.1//EN" "http://www.w3.org/Graphics/SVG/1.1/DTD/svg11.dtd"><svg t="1774967215896" class="icon" viewBox="0 0 1024 1024" version="1.1" xmlns="http://www.w3.org/2000/svg" p-id="4748" xmlns:xlink="http://www.w3.org/1999/xlink" width="128" height="128"><path d="M835.368421 871.298246h-682.666667v-682.666667H485.052632v-71.859649H116.77193c-19.761404 0-35.929825 16.168421-35.929825 35.929824v754.526316c0 19.761404 16.168421 35.929825 35.929825 35.929825h754.526316c19.761404 0 35.929825-16.168421 35.929824-35.929825V538.947368h-71.859649v332.350878z" p-id="4749"></path><path d="M932.378947 228.154386l-145.515789-147.312281L736.561404 131.14386l70.063157 70.063158c-71.859649-3.592982-167.073684 5.389474-237.136842 59.28421C503.017544 312.589474 467.087719 393.431579 467.087719 501.221053h71.859649c0-84.435088 25.150877-147.312281 73.656141-183.242106 64.673684-48.505263 158.091228-50.301754 220.968421-43.115789L736.561404 370.077193l50.301754 50.301754 147.312281-145.515789c12.575439-10.778947 12.575439-34.133333-1.796492-46.708772z" p-id="4750"></path></svg>