<?xml version="1.0" standalone="no"?><!DOCTYPE svg PUBLIC "-//W3C//DTD SVG 1.1//EN" "http://www.w3.org/Graphics/SVG/1.1/DTD/svg11.dtd"><svg t="1774787670031" class="icon" viewBox="0 0 1024 1024" version="1.1" xmlns="http://www.w3.org/2000/svg" p-id="8582" xmlns:xlink="http://www.w3.org/1999/xlink" width="128" height="128"><path d="M1024 253.979V770.02a78.282 78.282 0 0 1-0.876 8.825 568.387 568.387 0 0 1-6.737 62.518c-15.158 77.541-59.284 132.312-132.311 163.167a256 256 0 0 1-82.392 17.448c-10.577 0.741-21.22 1.347-31.798 2.021H253.98c-4.581-0.337-9.23-0.808-13.878-0.943a342.973 342.973 0 0 1-67.368-8.152C99.3 997.053 47.629 953.061 18.796 883.065a261.255 261.255 0 0 1-16.775-81.38C1.213 790.77 0.674 779.788 0 768.874V254.99a87.983 87.983 0 0 1 0.876-9.364c2.02-21.019 2.425-42.374 6.737-62.99 14.82-77.54 59.014-132.31 131.974-163.166a256 256 0 0 1 82.729-17.448C232.893 1.28 243.536 0.674 254.114 0h516.042c4.446 0.337 8.892 0.808 13.473 0.943a341.962 341.962 0 0 1 67.773 8.152c73.432 17.852 125.44 61.844 153.937 131.907a259.638 259.638 0 0 1 16.91 80.842c0.471 10.981 1.077 21.558 1.751 32.135z" fill="#FFFFFF" p-id="8583"></path><path d="M1005.339 141.002C976.842 70.94 924.834 26.947 851.402 9.095a343.579 343.579 0 0 0-42.98-6.737v1019.217a256 256 0 0 0 75.654-17.044c73.027-30.855 117.153-85.626 132.311-163.167a568.387 568.387 0 0 0 6.737-62.518 78.282 78.282 0 0 0 0.876-8.825V253.98c-0.674-10.577-1.28-21.154-1.752-32.135a259.638 259.638 0 0 0-16.91-80.842z" fill="#74AFFF" p-id="8584"></path><path d="M0 768.876c0.674 10.913 1.213 21.895 2.021 32.808a261.255 261.255 0 0 0 16.775 81.381c28.833 69.996 80.842 113.786 153.937 131.84a342.973 342.973 0 0 0 67.368 8.152c4.648 0 9.297 0.606 13.878 0.943h8.758V761.263H0z" fill="#FFF59F" p-id="8585"></path><path d="M808.421 2.425c-8.219-0.74-16.505-1.347-24.792-1.482-4.58 0-9.027-0.606-13.473-0.943h-62.788v1024h62.518c10.577-0.674 21.221-1.28 31.798-2.021l6.737-0.404z" fill="#CCCCCC" p-id="8586"></path><path d="M808.421 2.425c-8.219-0.74-16.505-1.347-24.792-1.482-4.58 0-9.027-0.606-13.473-0.943H254.114c-10.577 0.674-21.221 1.28-31.798 2.021a256 256 0 0 0-82.729 17.448C66.627 50.324 22.434 105.095 7.276 182.636c-3.975 20.615-4.38 41.97-6.4 62.99A87.983 87.983 0 0 0 0 254.988v95.327h808.421z" fill="#C695FF" p-id="8587"></path><path d="M350.316 0h-96.202l-25.061 1.617v1020.9c3.705 0 7.343 0.472 11.048 0.54s9.162 0.943 13.878 0.943h96.337z" fill="#FFD29F" p-id="8588"></path><path d="M0 262.737h1024v87.579H0z" fill="#FFFFFF" p-id="8589"></path><path d="M0 700.632v68.244c0.674 10.913 1.213 21.895 2.021 32.808a258.762 258.762 0 0 0 6.737 47.158h1005.945c0.606-2.493 1.213-4.918 1.684-7.478a568.387 568.387 0 0 0 6.737-62.518 78.282 78.282 0 0 0 0.876-8.825v-69.39z" fill="#FBD33B" p-id="8590"></path><path d="M651.992 849.112L437.49 717.743l-104.758 86.434 41.566-131.369 419.099-432.37-475.621 410.745-176.303-114.728 660.21-307.672-149.692 620.329z" fill="#028ED6" p-id="8591"></path></svg>