<svg width="20" height="20" viewBox="0 0 20 20" fill="none" xmlns="http://www.w3.org/2000/svg">
<g id="&#229;&#175;&#134;&#231;&#160;&#129;">
<path id="Union" fill-rule="evenodd" clip-rule="evenodd" d="M7.42316 2.09849C8.05523 1.46642 8.91249 1.11133 9.80637 1.11133C10.7002 1.11133 11.5575 1.46642 12.1896 2.09849C12.8217 2.73055 13.1767 3.58782 13.1767 4.4817V6.98874H14.0859C14.8018 6.98874 15.3822 7.56911 15.3822 8.28504V13.1686C15.3822 13.8845 14.8018 14.4649 14.0859 14.4649H5.52859C4.81266 14.4649 4.23229 13.8845 4.23229 13.1686V8.28504C4.23229 7.56911 4.81266 6.98874 5.52859 6.98874H6.436V4.4817C6.436 3.58782 6.79109 2.73055 7.42316 2.09849ZM12.3125 4.4817V6.98874H7.3002V4.4817C7.3002 3.81702 7.56424 3.17957 8.03424 2.70957C8.50424 2.23957 9.14169 1.97553 9.80637 1.97553C10.4711 1.97553 11.1085 2.23957 11.5785 2.70957C12.0485 3.17957 12.3125 3.81702 12.3125 4.4817ZM5.09649 8.28504C5.09649 8.0464 5.28995 7.85294 5.52859 7.85294H14.0859C14.3245 7.85294 14.518 8.0464 14.518 8.28504V13.1686C14.518 13.4073 14.3245 13.6007 14.0859 13.6007H5.52859C5.28995 13.6007 5.09649 13.4073 5.09649 13.1686V8.28504ZM10.7259 10.7273C10.7259 11.2346 10.3146 11.6459 9.80724 11.6459C9.29989 11.6459 8.8886 11.2346 8.8886 10.7273C8.8886 10.2199 9.29989 9.80862 9.80724 9.80862C10.3146 9.80862 10.7259 10.2199 10.7259 10.7273ZM7.40736 17.9632C7.40736 18.4405 7.02044 18.8274 6.54316 18.8274C6.06588 18.8274 5.67896 18.4405 5.67896 17.9632C5.67896 17.4859 6.06588 17.099 6.54316 17.099C7.02044 17.099 7.40736 17.4859 7.40736 17.9632ZM9.99994 18.8274C10.4772 18.8274 10.8641 18.4405 10.8641 17.9632C10.8641 17.4859 10.4772 17.099 9.99994 17.099C9.52265 17.099 9.13574 17.4859 9.13574 17.9632C9.13574 18.4405 9.52265 18.8274 9.99994 18.8274ZM14.3209 17.9632C14.3209 18.4405 13.934 18.8274 13.4567 18.8274C12.9795 18.8274 12.5925 18.4405 12.5925 17.9632C12.5925 17.4859 12.9795 17.099 13.4567 17.099C13.934 17.099 14.3209 17.4859 14.3209 17.9632ZM16.9135 18.8274C17.3908 18.8274 17.7777 18.4405 17.7777 17.9632C17.7777 17.4859 17.3908 17.099 16.9135 17.099C16.4362 17.099 16.0493 17.4859 16.0493 17.9632C16.0493 18.4405 16.4362 18.8274 16.9135 18.8274ZM3.95056 17.9632C3.95056 18.4405 3.56365 18.8274 3.08637 18.8274C2.60908 18.8274 2.22217 18.4405 2.22217 17.9632C2.22217 17.4859 2.60908 17.099 3.08637 17.099C3.56365 17.099 3.95056 17.4859 3.95056 17.9632Z" fill="#292929"/>
</g>
</svg>
