<svg width="18" height="18" viewBox="0 0 18 18" fill="none" xmlns="http://www.w3.org/2000/svg">
<g id="Smatphone" clip-path="url(#clip0_7449_22527)">
<g id="phone-camera-front">
<g id="Group 74">
<path id="&#232;&#183;&#175;&#229;&#190;&#132; 12133 (Stroke)" fill-rule="evenodd" clip-rule="evenodd" d="M5.97033 1.91524C5.69026 1.91524 5.4218 2.02632 5.224 2.22379C5.02621 2.42124 4.91524 2.68887 4.91524 2.96777V15.0489C4.91524 15.3278 5.02621 15.5955 5.224 15.7929C5.42181 15.9904 5.69026 16.1015 5.97033 16.1015H12.0297C12.3097 16.1015 12.5782 15.9904 12.776 15.7929C12.9738 15.5955 13.0848 15.3278 13.0848 15.0489V2.96777C13.0848 2.68887 12.9738 2.42124 12.776 2.22379C12.5782 2.02632 12.3097 1.91524 12.0297 1.91524H5.97033ZM4.57737 1.57607C4.94694 1.20713 5.44802 1 5.97033 1H12.0297C12.552 1 13.0531 1.20713 13.4226 1.57607C13.7922 1.94504 14 2.44563 14 2.96777V15.0489C14 15.5711 13.7922 16.0717 13.4226 16.4406C13.0531 16.8096 12.552 17.0167 12.0297 17.0167H5.97033C5.44802 17.0167 4.94694 16.8096 4.57737 16.4406C4.20778 16.0717 4 15.5711 4 15.0489V2.96777C4 2.44563 4.20778 1.94504 4.57737 1.57607Z" fill="#212121"/>
<path id="&#230;&#164;&#173;&#229;&#156;&#134; 808" d="M9 5C9.55228 5 10 4.55228 10 4C10 3.44772 9.55228 3 9 3C8.44772 3 8 3.44772 8 4C8 4.55228 8.44772 5 9 5Z" fill="#212121"/>
</g>
</g>
</g>
<defs>
<clipPath id="clip0_7449_22527">
<rect width="18" height="18" fill="white"/>
</clipPath>
</defs>
</svg>
