<?xml version="1.0" standalone="no"?><!DOCTYPE svg PUBLIC "-//W3C//DTD SVG 1.1//EN" "http://www.w3.org/Graphics/SVG/1.1/DTD/svg11.dtd"><svg t="1774787703467" class="icon" viewBox="0 0 1316 1024" version="1.1" xmlns="http://www.w3.org/2000/svg" p-id="9681" xmlns:xlink="http://www.w3.org/1999/xlink" width="164.5" height="128"><path d="M0 127.268571l330.605714 247.076572L0 636.928V127.268571z m1080.32 790.089143c-24.649143-36.132571-89.234286-104.082286-193.828571-203.849143L1316.571429 329.362286V950.857143a73.142857 73.142857 0 0 1-73.142858 73.142857h-102.692571a917.430857 917.430857 0 0 0-60.416-106.642286z" fill="#C0DBB9" p-id="9682"></path><path d="M1024 296.009143l65.097143 52.077714-111.616 98.011429-6.290286-4.973715c34.230857-57.709714 51.785143-106.057143 52.736-145.115428zM882.176 370.102857L722.432 242.395429l-22.893714 18.432a109.714286 109.714286 0 1 1 182.710857 109.202285z m-288.402286-24.283428L0 822.857143V636.928l330.605714-262.582857L0 127.268571V73.142857a73.142857 73.142857 0 0 1 73.142857-73.142857h0.950857L449.097143 280.210286 801.938286 0h222.134857l-120.393143 96.768A219.428571 219.428571 0 0 0 585.142857 292.571429c0 16.091429 2.925714 33.792 8.704 53.174857z" fill="#FFFFFF" p-id="9683"></path><path d="M774.582857 624.274286c9.654857 11.117714 19.602286 22.454857 29.988572 34.011428 65.536-72.996571 116.297143-137.728 152.502857-194.267428L1316.571429 148.333714v181.028572L538.989714 1024H319.414857l455.168-399.725714z" fill="#F1D25E" p-id="9684"></path><path d="M220.598857 1024H73.142857a73.142857 73.142857 0 0 1-73.142857-73.142857v-64.146286L518.875429 658.285714c63.780571-31.232 117.394286-46.592 160.987428-46.08 24.649143 0.365714 53.467429 6.802286 86.601143 19.236572l-354.742857 311.442285c-66.998857 24.649143-130.706286 51.638857-191.122286 81.115429z m920.137143 0h-64.146286a304.786286 304.786286 0 0 0-27.062857-43.593143c-19.382857-25.6-55.808-63.414857-109.421714-113.371428L914.285714 877.714286l68.461715 146.285714h-56.246858a258.194286 258.194286 0 0 0-12.214857-27.574857c-21.942857-42.569143-67.876571-104.155429-137.801143-184.612572l110.006858-98.304c104.594286 99.766857 169.179429 167.716571 193.828571 203.849143 18.432 27.062857 38.619429 62.610286 60.416 106.642286z" fill="#95C9FF" p-id="9685"></path><path d="M593.846857 345.746286c21.211429 70.948571 81.481143 163.766857 180.736 278.528l-8.118857 7.168c-33.133714-12.434286-61.952-18.870857-86.601143-19.163429-43.593143-0.585143-97.28 14.774857-160.987428 46.006857L0 886.710857v-63.853714l593.846857-477.110857z m105.691429-84.918857l22.893714-18.432 159.817143 127.634285a109.714286 109.714286 0 0 1-182.710857-109.275428z m271.652571 180.297142l6.290286 4.973715-20.406857 17.92c4.973714-7.753143 9.728-15.36 14.116571-22.893715zM1076.662857 1024h-93.842286l-68.461714-146.285714 25.819429-10.678857c53.613714 49.956571 90.038857 87.771429 109.348571 113.371428 9.654857 12.653714 18.651429 27.209143 27.136 43.593143z m-150.089143 0H539.062857l237.494857-212.187429c69.924571 80.457143 115.858286 142.043429 137.801143 184.612572 4.681143 9.069714 8.777143 18.285714 12.214857 27.574857z m-607.085714 0H220.598857a2043.538286 2043.538286 0 0 1 191.195429-81.115429L319.414857 1024zM74.093714 0h727.844572L449.097143 280.210286 74.093714 0z" fill="#DADBC9" p-id="9686"></path><path d="M1024 296.009143V292.571429a219.428571 219.428571 0 0 0-120.32-195.803429L1024.073143 0H1243.428571a73.142857 73.142857 0 0 1 65.901715 41.398857l7.241143 59.318857v47.616l-227.474286 199.68-65.097143-51.931428z" fill="#ACC4A5" p-id="9687"></path><path d="M804.571429 658.285714C658.285714 495.250286 585.142857 373.394286 585.142857 292.571429a219.428571 219.428571 0 1 1 438.857143 0c0 80.822857-73.142857 202.678857-219.428571 365.714285z m0-256a109.714286 109.714286 0 1 0 0-219.428571 109.714286 109.714286 0 0 0 0 219.428571z" fill="#FC4B35" p-id="9688"></path></svg>