<svg width="20" height="20" viewBox="0 0 20 20" fill="none" xmlns="http://www.w3.org/2000/svg">
<g id="&#233;&#170;&#140;&#232;&#175;&#129;&#231;&#160;&#129;">
<g id="lock-portrait">
<g id="Group 75">
<g id="Group 78">
<path id="&#232;&#183;&#175;&#229;&#190;&#132; 12134 (Stroke)" fill-rule="evenodd" clip-rule="evenodd" d="M3.75492 2.23684C3.62977 2.23684 3.50994 2.28648 3.42174 2.37453C3.33356 2.46256 3.2842 2.58174 3.2842 2.7058V16.1182C3.2842 16.2422 3.33356 16.3614 3.42174 16.4494C3.50994 16.5375 3.62977 16.5871 3.75492 16.5871H7.88881C8.19961 16.5871 8.45157 16.8391 8.45157 17.1499C8.45157 17.4607 8.19961 17.7126 7.88881 17.7126H3.75492C3.33188 17.7126 2.92598 17.5449 2.62655 17.246C2.3271 16.947 2.15869 16.5414 2.15869 16.1182V2.7058C2.15869 2.28261 2.3271 1.87695 2.62655 1.578C2.92598 1.27909 3.33188 1.11133 3.75492 1.11133H13.0562C13.4792 1.11133 13.8851 1.27909 14.1845 1.578C14.484 1.87695 14.6524 2.28261 14.6524 2.7058V5.80096C14.6524 6.11177 14.4005 6.36372 14.0896 6.36372C13.7788 6.36372 13.5269 6.11177 13.5269 5.80096V2.7058C13.5269 2.58174 13.4775 2.46256 13.3894 2.37453C13.3012 2.28648 13.1813 2.23684 13.0562 2.23684H3.75492Z" fill="#212121"/>
<path id="&#231;&#159;&#169;&#229;&#189;&#162; 4967 (Stroke)" fill-rule="evenodd" clip-rule="evenodd" d="M10.4265 13.0232C10.4265 12.7124 10.6785 12.4604 10.9893 12.4604H17.1901C17.5009 12.4604 17.7529 12.7124 17.7529 13.0232V17.1501C17.7529 17.4609 17.5009 17.7128 17.1901 17.7128H10.9893C10.6785 17.7128 10.4265 17.4609 10.4265 17.1501V13.0232ZM11.552 13.586V16.5873H16.6274V13.586H11.552Z" fill="#212121"/>
<path id="&#232;&#183;&#175;&#229;&#190;&#132; 12135 (Stroke)" fill-rule="evenodd" clip-rule="evenodd" d="M14.0897 9.45901C13.6904 9.45901 13.3077 9.61735 13.0257 9.89889C12.7437 10.1804 12.5855 10.562 12.5855 10.9597V13.0231C12.5855 13.3339 12.3335 13.5859 12.0227 13.5859C11.7119 13.5859 11.46 13.3339 11.46 13.0231V10.9597C11.46 10.2629 11.7373 9.59479 12.2305 9.10235C12.7238 8.60995 13.3925 8.3335 14.0897 8.3335C14.7868 8.3335 15.4556 8.60995 15.9488 9.10235C16.4421 9.59479 16.7194 10.2629 16.7194 10.9597V13.0231C16.7194 13.3339 16.4674 13.5859 16.1566 13.5859C15.8458 13.5859 15.5939 13.3339 15.5939 13.0231V10.9597C15.5939 10.562 15.4356 10.1804 15.1536 9.89889C14.8716 9.61735 14.4889 9.45901 14.0897 9.45901Z" fill="#212121"/>
</g>
</g>
</g>
</g>
</svg>
