<svg width="22" height="22" viewBox="0 0 22 22" fill="none" xmlns="http://www.w3.org/2000/svg">
<g id="bx:map">
<path id="Vector" d="M11 12.8333C13.0222 12.8333 14.6667 11.1888 14.6667 9.16667C14.6667 7.1445 13.0222 5.5 11 5.5C8.97787 5.5 7.33337 7.1445 7.33337 9.16667C7.33337 11.1888 8.97787 12.8333 11 12.8333ZM11 7.33333C12.0111 7.33333 12.8334 8.15558 12.8334 9.16667C12.8334 10.1778 12.0111 11 11 11C9.98896 11 9.16671 10.1778 9.16671 9.16667C9.16671 8.15558 9.98896 7.33333 11 7.33333Z" fill="black"/>
<path id="Vector_2" d="M10.4684 19.9963C10.6236 20.1069 10.8095 20.1663 11 20.1663C11.1906 20.1663 11.3765 20.1069 11.5317 19.9963C11.8104 19.7992 18.36 15.0702 18.3334 9.16683C18.3334 5.12341 15.0435 1.8335 11 1.8335C6.95662 1.8335 3.66671 5.12341 3.66671 9.16225C3.64012 15.0702 10.1897 19.7992 10.4684 19.9963ZM11 3.66683C14.0333 3.66683 16.5 6.13358 16.5 9.17141C16.5193 13.2396 12.4777 16.8925 11 18.0906C9.52329 16.8916 5.48079 13.2377 5.50004 9.16683C5.50004 6.13358 7.96679 3.66683 11 3.66683Z" fill="black"/>
</g>
</svg>
